# xmcd
#
# Track frame offsets: 
#        200
#        17680
#        36495
#        51187
#        77842
#        90692
#        111930
#        130485
#        154847
#        175622
#        198255
#        219292
#        237680
#
# Disc length: 3388 seconds
#
# Revision: 3
# Processed by: cddbd v1.5.2PL0 Copyright (c) Steve Scherf et al.
# Submitted via: ExactAudioCopy v0.99pb4
#
DISCID=b10d3a0d
DTITLE=Bill Nelson - Quit Dreaming And Get On The Beam (US)
DYEAR=1989
DGENRE=New Wave
TTITLE0=Banal
TTITLE1=Living In My Limosine
TTITLE2=Vertical Games
TTITLE3=Disposable
TTITLE4=False Alarms
TTITLE5=Decline And Fall
TTITLE6=White Sound
TTITLE7=Life Runs Out Like Sand
TTITLE8=Indescreation
TTITLE9=The World And His Wife
TTITLE10=U.H.F.
TTITLE11=Youth Of Nation On Fire
TTITLE12=Quit Dreaming And Get On The Beam
EXTD=YEAR: 1989
EXTT0=
EXTT1=
EXTT2=
EXTT3=
EXTT4=
EXTT5=
EXTT6=
EXTT7=
EXTT8=
EXTT9=
EXTT10=
EXTT11=
EXTT12=
PLAYORDER=
